<?xml version="1.0" encoding="UTF-8"?>
<svg version="1.1" xmlns="http://www.w3.org/2000/svg" width="128" height="128">
<path d="M0 0 C0.33 2.31 0.66 4.62 1 7 C1.66386719 6.84402344 2.32773438 6.68804688 3.01171875 6.52734375 C3.89472656 6.33269531 4.77773437 6.13804688 5.6875 5.9375 C6.55761719 5.74027344 7.42773438 5.54304688 8.32421875 5.33984375 C11.16001276 4.97967721 13.24789982 5.29090031 16 6 C16.2475 6.845625 16.495 7.69125 16.75 8.5625 C17.87936696 11.66825914 19.25261915 14.33466996 20.9453125 17.1640625 C21.99364749 18.98894193 22.86891605 20.83968524 23.75 22.75 C25.49036331 26.41466746 27.80815111 29.24362078 30.375 32.375 C33.93226565 37.16210098 33.93226565 37.16210098 34.2109375 40.609375 C33.40213022 45.02354353 31.66132795 48.74881656 29.6875 52.75 C28.58456021 54.90050357 28.58456021 54.90050357 28 57 C29.24169437 60.15007835 29.24169437 60.15007835 31 63 C31.1875 66.625 31.1875 66.625 30 70 C20.53403307 76.3713239 6.23649289 79.8722247 -5 81 C-8.34765625 80.1953125 -8.34765625 80.1953125 -11 79 C-11.495 78.01 -11.495 78.01 -12 77 C-15.22133877 76.38576168 -18.44639473 76.0396169 -21.703125 75.66015625 C-25.10457212 74.9790608 -27.21047314 74.03106061 -30 72 C-36.05914823 59.88170355 -30.5290041 32.74850921 -26.9140625 20.1875 C-25.20178944 16.0897525 -22.57999071 14.00544863 -18.9375 11.6875 C-17 11 -17 11 -13 11 C-13.103125 9.741875 -13.20625 8.48375 -13.3125 7.1875 C-13.29181495 3.29181495 -13.29181495 3.29181495 -11 1 C-7.11349964 -0.29550012 -4.08606506 -0.20776602 0 0 Z M-10 4 C-10.33 5.65 -10.66 7.3 -11 9 C-7.7 8.67 -4.4 8.34 -1 8 C-1.33 6.35 -1.66 4.7 -2 3 C-5.04386724 2.91773332 -7.07175348 3.02391783 -10 4 Z M-24 26 C-29.80365091 47.40059797 -29.80365091 47.40059797 -26.76171875 68.125 C-24.61320764 70.41166371 -23.01136159 70.94338529 -20 71.75 C-19.13375 71.99234375 -18.2675 72.2346875 -17.375 72.484375 C-14.91643749 73.10608136 -14.91643749 73.10608136 -12 73 C-11.01 69.37 -10.02 65.74 -9 62 C-10.299375 61.401875 -11.59875 60.80375 -12.9375 60.1875 C-15.15234375 59.16796875 -15.15234375 59.16796875 -17 58 C-18.23899771 54.28300687 -17.49964014 52.54299386 -16.625 48.75 C-15.16159879 39.76321564 -18.59757773 33.66665733 -23 26 C-23.33 26 -23.66 26 -24 26 Z " fill="#063B77" transform="translate(62,23)"/>
<path d="M0 0 C2.38671875 0.71875 2.38671875 0.71875 5 2 C6.08203125 4.03125 6.08203125 4.03125 6.8125 6.5 C8.68443358 11.84506654 11.55023216 15.47475038 15.29296875 19.67578125 C17.21431735 22.29180508 17.82322132 23.76887852 18 27 C17.22265625 29.89453125 17.22265625 29.89453125 16.0625 32.8125 C15.68222656 33.78832031 15.30195312 34.76414063 14.91015625 35.76953125 C14.60980469 36.50558594 14.30945313 37.24164063 14 38 C13.34 38 12.68 38 12 38 C11.67 38.99 11.34 39.98 11 41 C8.6875 42.5625 8.6875 42.5625 6 44 C5.319375 44.37125 4.63875 44.7425 3.9375 45.125 C1.97482355 46.01137001 0.10207695 46.54955494 -2 47 C-2 45.68 -2 44.36 -2 43 C-5.63 43.99 -9.26 44.98 -13 46 C-13 45.01 -13 44.02 -13 43 C-13.33 43.33 -13.66 43.66 -14 44 C-13.71325582 46.00720923 -13.38133299 48.0085944 -13 50 C-15.475 50.495 -15.475 50.495 -18 51 C-18.495 49.515 -18.495 49.515 -19 48 C-20.94090749 47.30212135 -20.94090749 47.30212135 -23.25 47 C-27.10403982 46.37921506 -29.98312535 45.56249423 -33 43 C-33.55859375 39.63671875 -33.55859375 39.63671875 -33.4375 35.6875 C-33.41558594 34.39199219 -33.39367188 33.09648438 -33.37109375 31.76171875 C-33.01450559 28.14704086 -32.25671403 25.38824314 -31 22 C-30.27982843 19.5451086 -29.57169534 17.08665686 -28.875 14.625 C-28.52179687 13.37976562 -28.16859375 12.13453125 -27.8046875 10.8515625 C-27.53914063 9.91054688 -27.27359375 8.96953125 -27 8 C-23.63279613 9.39332574 -22.0140476 10.9789286 -20 14 C-19.02417969 13.7834375 -18.04835938 13.566875 -17.04296875 13.34375 C-15.13451172 12.92609375 -15.13451172 12.92609375 -13.1875 12.5 C-11.92292969 12.2215625 -10.65835938 11.943125 -9.35546875 11.65625 C-6 11 -6 11 -3 11 C-2.86722656 10.37351562 -2.73445313 9.74703125 -2.59765625 9.1015625 C-2.42105469 8.28429688 -2.24445313 7.46703125 -2.0625 6.625 C-1.80146484 5.40683594 -1.80146484 5.40683594 -1.53515625 4.1640625 C-1 2 -1 2 0 0 Z " fill="#EDEDED" transform="translate(78,37)"/>
<path d="M0 0 C0.05491533 1.68712082 0.09319918 3.37478525 0.125 5.0625 C0.14820313 6.00222656 0.17140625 6.94195312 0.1953125 7.91015625 C0 11 0 11 -2 18 C-7.61 19.32 -13.22 20.64 -19 22 C-20.65 20.02 -22.3 18.04 -24 16 C-24.66 15.67 -25.32 15.34 -26 15 C-26.12117188 15.58007812 -26.24234375 16.16015625 -26.3671875 16.7578125 C-28.29181495 25.72953737 -28.29181495 25.72953737 -30 30 C-30.66 30.33 -31.32 30.66 -32 31 C-34.64 25.06 -37.28 19.12 -40 13 C-30.11601781 3.11601781 -13.82900958 0 0 0 Z " fill="#064285" transform="translate(77,30)"/>
<path d="M0 0 C0.33 2.31 0.66 4.62 1 7 C1.66386719 6.84402344 2.32773438 6.68804688 3.01171875 6.52734375 C3.89472656 6.33269531 4.77773437 6.13804688 5.6875 5.9375 C6.55761719 5.74027344 7.42773438 5.54304688 8.32421875 5.33984375 C11.16001276 4.97967721 13.24789982 5.29090031 16 6 C18 11.625 18 11.625 18 15 C17.34 14.67 16.68 14.34 16 14 C15.67 14.66 15.34 15.32 15 16 C15 13.03 15 10.06 15 7 C10.53677598 7.87249297 6.08065936 8.77722793 1.625 9.6875 C-0.25251953 10.05391602 -0.25251953 10.05391602 -2.16796875 10.42773438 C-9.61845336 11.9685414 -16.58542263 13.75279637 -23 18 C-23.33 18.66 -23.66 19.32 -24 20 C-22.9747506 22.7526037 -21.88865303 25.38836628 -20.6875 28.0625 C-20.36587891 28.80822266 -20.04425781 29.55394531 -19.71289062 30.32226562 C-18.1776181 34.36446702 -18.1776181 34.36446702 -15 37 C-15 38.32 -15 39.64 -15 41 C-15.66 41 -16.32 41 -17 41 C-18.98 37.04 -20.96 33.08 -23 29 C-23.33 29 -23.66 29 -24 29 C-24.70637337 33.47639922 -25.38665442 37.95639847 -26.0625 42.4375 C-26.26166016 43.69755859 -26.46082031 44.95761719 -26.66601562 46.25585938 C-28.70490656 58.06291368 -28.70490656 58.06291368 -25 69 C-21.90289577 70.24247222 -21.90289577 70.24247222 -18.375 71.1875 C-16.59222656 71.70376953 -16.59222656 71.70376953 -14.7734375 72.23046875 C-13.85820313 72.48441406 -12.94296875 72.73835938 -12 73 C-11.67 70.69 -11.34 68.38 -11 66 C-10.67 66 -10.34 66 -10 66 C-10.33 69.63 -10.66 73.26 -11 77 C-13.23085067 76.74340689 -15.45967123 76.46912686 -17.6875 76.1875 C-19.54955078 75.96126953 -19.54955078 75.96126953 -21.44921875 75.73046875 C-24.96431199 75.00734176 -27.12937387 74.11435728 -30 72 C-36.05914823 59.88170355 -30.5290041 32.74850921 -26.9140625 20.1875 C-25.20178944 16.0897525 -22.57999071 14.00544863 -18.9375 11.6875 C-17 11 -17 11 -13 11 C-13.103125 9.741875 -13.20625 8.48375 -13.3125 7.1875 C-13.29181495 3.29181495 -13.29181495 3.29181495 -11 1 C-7.11349964 -0.29550012 -4.08606506 -0.20776602 0 0 Z M-10 4 C-10.33 5.65 -10.66 7.3 -11 9 C-7.7 8.67 -4.4 8.34 -1 8 C-1.33 6.35 -1.66 4.7 -2 3 C-5.04386724 2.91773332 -7.07175348 3.02391783 -10 4 Z " fill="#020305" transform="translate(62,23)"/>
<path d="M0 0 C0.33 0 0.66 0 1 0 C1.33 2.97 1.66 5.94 2 9 C3.76858691 9.67260351 5.53996016 10.33788395 7.3125 11 C8.29863281 11.37125 9.28476562 11.7425 10.30078125 12.125 C13.00271656 13.15418502 13.00271656 13.15418502 16 13 C16 14.32 16 15.64 16 17 C17.65 16.67 19.3 16.34 21 16 C20.67 16.66 20.34 17.32 20 18 C18.35 18 16.7 18 15 18 C15 17.01 15 16.02 15 15 C11.45481116 16.39759905 11.45481116 16.39759905 8 18 C8 17.01 8 16.02 8 15 C6.25954103 13.63741415 6.25954103 13.63741415 4.0625 12.5 C0.10799136 10.32397408 0.10799136 10.32397408 -1 7 C-0.72230092 4.6593935 -0.39460023 2.32375692 0 0 Z " fill="#0C131E" transform="translate(44,71)"/>
<path d="M0 0 C0.99 0 1.98 0 3 0 C3.33 1.98 3.66 3.96 4 6 C2.35 6.33 0.7 6.66 -1 7 C-1.04254356 5.00045254 -1.04080783 2.99958364 -1 1 C-0.67 0.67 -0.34 0.34 0 0 Z " fill="#F8F9F8" transform="translate(61,81)"/>
<path d="M0 0 C0.33 0.99 0.66 1.98 1 3 C-1.31 4.32 -3.62 5.64 -6 7 C-6 6.01 -6 5.02 -6 4 C-3 1.8125 -3 1.8125 0 0 Z " fill="#060910" transform="translate(43,35)"/>
</svg>
